<?xml version="1.0" encoding="UTF-8" standalone="no"?>
<!-- Created with Inkscape (http://www.inkscape.org/) -->

<svg
   xmlns:dc="http://purl.org/dc/elements/1.1/"
   xmlns:cc="http://creativecommons.org/ns#"
   xmlns:rdf="http://www.w3.org/1999/02/22-rdf-syntax-ns#"
   xmlns:svg="http://www.w3.org/2000/svg"
   xmlns="http://www.w3.org/2000/svg"
   xmlns:sodipodi="http://sodipodi.sourceforge.net/DTD/sodipodi-0.dtd"
   xmlns:inkscape="http://www.inkscape.org/namespaces/inkscape"
   width="144.51154"
   height="27.974695"
   id="svg2"
   version="1.1"
   inkscape:version="0.48.4 r9939"
   sodipodi:docname="wyd-player.svg">
  <defs
     id="defs4">
    <linearGradient
       id="linearGradient3063">
      <stop
         style="stop-color:#004893;stop-opacity:1;"
         offset="0"
         id="stop3065" />
      <stop
         style="stop-color:#800000;stop-opacity:1"
         offset="1"
         id="stop3067" />
    </linearGradient>
    <filter
       inkscape:collect="always"
       id="filter3975"
       color-interpolation-filters="sRGB">
      <feGaussianBlur
         inkscape:collect="always"
         stdDeviation="0.82268669"
         id="feGaussianBlur3977" />
    </filter>
    <filter
       inkscape:collect="always"
       id="filter3979"
       color-interpolation-filters="sRGB">
      <feGaussianBlur
         inkscape:collect="always"
         stdDeviation="0.82268669"
         id="feGaussianBlur3981" />
    </filter>
    <filter
       inkscape:collect="always"
       id="filter3983"
       color-interpolation-filters="sRGB">
      <feGaussianBlur
         inkscape:collect="always"
         stdDeviation="0.82268669"
         id="feGaussianBlur3985" />
    </filter>
    <filter
       inkscape:collect="always"
       id="filter3987"
       color-interpolation-filters="sRGB">
      <feGaussianBlur
         inkscape:collect="always"
         stdDeviation="0.82268669"
         id="feGaussianBlur3989" />
    </filter>
    <filter
       inkscape:collect="always"
       id="filter3991"
       color-interpolation-filters="sRGB">
      <feGaussianBlur
         inkscape:collect="always"
         stdDeviation="0.82268669"
         id="feGaussianBlur3993" />
    </filter>
  </defs>
  <sodipodi:namedview
     id="base"
     pagecolor="#ffffff"
     bordercolor="#666666"
     borderopacity="1.0"
     inkscape:pageopacity="0.0"
     inkscape:pageshadow="2"
     inkscape:zoom="0.98994949"
     inkscape:cx="390.33953"
     inkscape:cy="-220.03272"
     inkscape:document-units="px"
     inkscape:current-layer="layer1"
     showgrid="false"
     inkscape:window-width="1600"
     inkscape:window-height="837"
     inkscape:window-x="-8"
     inkscape:window-y="-8"
     inkscape:window-maximized="1"
     fit-margin-top="0"
     fit-margin-left="0"
     fit-margin-right="0"
     fit-margin-bottom="0" />
  <metadata
     id="metadata7">
    <rdf:RDF>
      <cc:Work
         rdf:about="">
        <dc:format>image/svg+xml</dc:format>
        <dc:type
           rdf:resource="http://purl.org/dc/dcmitype/StillImage" />
        <dc:title></dc:title>
      </cc:Work>
    </rdf:RDF>
  </metadata>
  <g
     inkscape:label="Layer 1"
     inkscape:groupmode="layer"
     id="layer1"
     transform="translate(-9.42151,-7.09771)">
    <g
       inkscape:label="Play"
       onclick="parent.player.play();"
       transform="translate(-504.07615,-58.609158)"
       id="g3137"
       style="font-size:40px;font-style:normal;font-variant:normal;font-weight:normal;font-stretch:normal;line-height:125%;letter-spacing:0px;word-spacing:0px;opacity:0.5;fill:#000000;fill-opacity:1;stroke:none;filter:url(#filter3991);font-family:LL_Record;-inkscape-font-specification:LL_Record">
      <title
         id="title3139">Play</title>
      <path
         style="fill:#000000;fill-opacity:1"
         inkscape:connector-curvature="0"
         id="path3141"
         d="m 568.63104,89.906578 c -3e-5,0.507 -0.17337,0.933839 -0.52002,1.280518 -0.3467,0.34668 -0.77314,0.520019 -1.27929,0.520019 l -20.36011,0 c -0.50701,0 -0.94035,-0.173339 -1.30005,-0.520019 -0.35971,-0.346679 -0.53956,-0.773518 -0.53955,-1.280518 l 0,-20.39917 c -10e-6,-0.506976 0.17984,-0.933815 0.53955,-1.280517 0.3597,-0.346656 0.79304,-0.519996 1.30005,-0.52002 l 20.36011,0 c 0.50615,2.4e-5 0.93259,0.173364 1.27929,0.52002 0.34665,0.346702 0.51999,0.773541 0.52002,1.280517 z m -6.87988,-11.359863 -8.19946,-4.719238 c -0.10662,-0.08055 -0.24009,-0.120832 -0.40039,-0.12085 -0.69338,1.8e-5 -1.04005,0.333676 -1.04004,1.000976 l 0,9.399415 c -10e-6,0.266934 0.11331,0.500291 0.33996,0.700073 0.22663,0.199795 0.47342,0.299689 0.74036,0.299682 0.16031,7e-6 0.30679,-0.03987 0.43945,-0.119629 l 8.12012,-4.680175 c 0.29376,-0.159494 0.44065,-0.452869 0.44067,-0.880127 -2e-5,-0.42642 -0.14691,-0.719795 -0.44067,-0.880127 z" />
    </g>
    <g
       inkscape:label="Pause"
       onclick="parent.player.pause()"
       transform="translate(-771.04712,-24.263966)"
       id="g3143"
       style="font-size:40px;font-style:normal;font-variant:normal;font-weight:normal;font-stretch:normal;line-height:125%;letter-spacing:0px;word-spacing:0px;opacity:0.5;fill:#000000;fill-opacity:1;stroke:none;filter:url(#filter3987);font-family:LL_Record;-inkscape-font-specification:LL_Record">
      <title
         id="title3145">Pause</title>
      <path
         style="fill:#000000;fill-opacity:1"
         inkscape:connector-curvature="0"
         id="path3147"
         d="m 864.737,55.561386 c -3e-5,0.480145 -0.18008,0.90027 -0.54016,1.260376 -0.36014,0.360108 -0.78026,0.540161 -1.26038,0.540161 l -20.40039,0 c -0.48015,0 -0.90007,-0.180053 -1.25976,-0.540161 -0.35971,-0.360106 -0.53956,-0.780231 -0.53955,-1.260376 l 0,-20.39917 c -10e-6,-0.48012 0.17984,-0.900245 0.53955,-1.260376 0.35969,-0.360083 0.77961,-0.540137 1.25976,-0.540161 l 20.40039,0 c 0.48012,2.4e-5 0.90024,0.180078 1.26038,0.540161 0.36008,0.360131 0.54013,0.780256 0.54016,1.260376 z m -8.00049,-4.799805 0,-10.439453 c -2e-5,-0.533836 -0.25352,-0.800763 -0.7605,-0.800781 l -1.51977,0 c -0.53306,1.8e-5 -0.79958,0.266945 -0.79956,0.800781 l 0,10.439453 c -2e-5,0.533861 0.2665,0.800787 0.79956,0.800782 l 1.51977,0 c 0.50698,5e-6 0.76048,-0.266921 0.7605,-0.800782 z m -4.92065,0 0,-10.439453 c -2e-5,-0.533836 -0.26654,-0.800763 -0.79956,-0.800781 l -1.51978,0 c -0.50701,1.8e-5 -0.76051,0.266945 -0.7605,0.800781 l 0,10.439453 c -1e-5,0.533861 0.25349,0.800787 0.7605,0.800782 l 1.51978,0 c 0.53302,5e-6 0.79954,-0.266921 0.79956,-0.800782 z" />
    </g>
    <g
       inkscape:label="Volume"
       onclick="parent.player.volume()"
       transform="translate(-734.4012,-55.578694)"
       id="g3149"
       style="font-size:40px;font-style:normal;font-variant:normal;font-weight:normal;font-stretch:normal;line-height:125%;letter-spacing:0px;word-spacing:0px;opacity:0.5;fill:#000000;fill-opacity:1;stroke:none;filter:url(#filter3983);font-family:LL_Record;-inkscape-font-specification:LL_Record">
      <title
         id="title3151">Volume</title>
      <path
         style="fill:#000000;fill-opacity:1"
         inkscape:connector-curvature="0"
         id="path3153"
         d="m 886.3598,86.876114 c -2e-5,0.480144 -0.18008,0.900269 -0.54016,1.260376 -0.36013,0.360107 -0.78026,0.540161 -1.26037,0.540161 l -20.39917,0 c -0.48015,0 -0.90028,-0.180054 -1.26038,-0.540161 -0.36011,-0.360107 -0.54016,-0.780232 -0.54016,-1.260376 l 0,-20.39917 c 0,-0.480121 0.18005,-0.900245 0.54016,-1.260376 0.3601,-0.360084 0.78023,-0.540137 1.26038,-0.540161 l 20.39917,0 c 0.48011,2.4e-5 0.90024,0.180077 1.26037,0.540161 0.36008,0.360131 0.54014,0.780255 0.54016,1.260376 z m -4.56054,-8.719483 0,-3.1604 c -3e-5,-0.533026 -0.26655,-0.799546 -0.79957,-0.79956 l -2.55981,0 0,4.759521 2.55981,0 c 0.53302,1e-5 0.79954,-0.26651 0.79957,-0.799561 z m -4.03931,1.240235 0,-5.639649 c -0.64048,-0.454086 -1.827,-1.320784 -3.55957,-2.600097 -0.0806,-0.08055 -0.1876,-0.120832 -0.32105,-0.12085 -0.53305,1.8e-5 -0.79957,0.320249 -0.79956,0.960694 l 0,9.160156 c -1e-5,0.6128 0.27994,0.919196 0.83985,0.919189 0.10659,7e-6 0.2132,-0.02644 0.31982,-0.07934 z M 871.56,80.836075 c -1.0132,-0.932609 -1.51979,-2.318919 -1.51978,-4.158936 -10e-6,-1.787095 0.49316,-3.147364 1.47949,-4.08081 0.0537,-0.02684 0.0806,-0.08014 0.0806,-0.159912 -1e-5,-0.133448 -0.0667,-0.200179 -0.20019,-0.200196 -0.13348,1.7e-5 -0.33367,0.120052 -0.60059,0.360108 -0.98634,0.90659 -1.4795,2.266859 -1.47949,4.08081 -10e-6,1.840017 0.50658,3.226327 1.51977,4.158936 0.16031,0.133471 0.28035,0.227058 0.36011,0.280762 0.24006,0.186368 0.38654,0.226244 0.43945,0.119628 0.0537,-0.133456 0.0273,-0.266919 -0.0793,-0.40039 z m -2.64038,1.040039 c -1.04005,-1.146639 -1.56007,-2.866608 -1.56006,-5.159912 -10e-6,-2.239569 0.50658,-3.946111 1.51977,-5.119629 0.0537,-0.05288 0.0806,-0.13304 0.0806,-0.240479 -10e-6,-0.132632 -0.0667,-0.198957 -0.2002,-0.198974 -0.18637,1.7e-5 -0.39958,0.133074 -0.63964,0.39917 -1.01319,1.093766 -1.51979,2.813735 -1.51978,5.159912 -1e-5,2.293304 0.52001,4.0267 1.56006,5.200195 0.0797,0.106615 0.19937,0.213223 0.35889,0.319824 0.26691,0.240078 0.42723,0.280361 0.48095,0.12085 0.0529,-0.133457 0.026,-0.293776 -0.0806,-0.480957 z" />
    </g>
    <g
       inkscape:label="Back"
       onclick="parent.player.back()"
       transform="translate(-932.39111,-56.588849)"
       id="g3155"
       style="font-size:40px;font-style:normal;font-variant:normal;font-weight:normal;font-stretch:normal;line-height:125%;letter-spacing:0px;word-spacing:0px;opacity:0.5;fill:#000000;fill-opacity:1;stroke:none;filter:url(#filter3979);font-family:LL_Record;-inkscape-font-specification:LL_Record">
      <title
         id="title3157">Back</title>
      <path
         style="fill:#000000;fill-opacity:1"
         inkscape:connector-curvature="0"
         id="path3159"
         d="m 967.81165,87.886269 c -3e-5,0.507 -0.17988,0.933838 -0.53956,1.280517 -0.35972,0.34668 -0.79307,0.52002 -1.30004,0.52002 l -20.36011,0 c -0.507,0 -0.93364,-0.17334 -1.27991,-0.52002 -0.34628,-0.346679 -0.51941,-0.773517 -0.51941,-1.280517 l 0,-20.39917 c 0,-0.506976 0.17313,-0.933815 0.51941,-1.280518 0.34627,-0.346656 0.77291,-0.519995 1.27991,-0.520019 l 20.36011,0 c 0.50697,2.4e-5 0.94032,0.173363 1.30004,0.520019 0.35968,0.346703 0.53953,0.773542 0.53956,1.280518 z m -3.55957,-6.879883 0,-6.079102 c -3e-5,-0.427231 -0.22667,-0.640853 -0.67994,-0.640869 -0.0798,1.6e-5 -0.15993,0.02687 -0.24047,0.08057 l -5.27955,3.03955 c -0.18637,0.106621 -0.27955,0.293388 -0.27954,0.560303 -10e-6,0.266939 0.0932,0.466727 0.27954,0.599365 l 5.24048,3.000489 c 0.0797,0.05372 0.17291,0.08057 0.27954,0.08057 0.45327,8e-6 0.67991,-0.213615 0.67994,-0.640869 z m -6.99952,0 0,-6.079102 c -10e-6,-0.427231 -0.22666,-0.640853 -0.67993,-0.640869 -0.10744,1.6e-5 -0.20102,0.02687 -0.28076,0.08057 l -5.27954,3.03955 c -0.18719,0.106621 -0.28077,0.293388 -0.28076,0.560303 -1e-5,0.266939 0.0936,0.466727 0.28076,0.599365 l 5.23926,3.000489 c 0.0806,0.05372 0.17413,0.08057 0.28076,0.08057 0.48013,8e-6 0.7202,-0.213615 0.72021,-0.640869 z m -8.00048,2.23999 0,-10.479736 c -10e-6,-0.506168 -0.25351,-0.75926 -0.7605,-0.759278 l -0.27954,0 c -0.53305,1.8e-5 -0.79957,0.25311 -0.79956,0.759278 l 0,10.479736 c -10e-6,0.53386 0.26651,0.800787 0.79956,0.800781 l 0.27954,0 c 0.50699,6e-6 0.76049,-0.266921 0.7605,-0.800781 z" />
    </g>
    <g
       inkscape:label="Next"
       onclick="parent.player.next()"
       transform="matrix(-1,0,0,-1,1066.6363,98.784516)"
       style="font-size:40px;font-style:normal;font-variant:normal;font-weight:normal;font-stretch:normal;line-height:125%;letter-spacing:0px;word-spacing:0px;opacity:0.5;fill:#000000;fill-opacity:1;stroke:none;filter:url(#filter3975);font-family:LL_Record;-inkscape-font-specification:LL_Record"
       id="g3161">
      <title
         id="title3163">Next</title>
      <path
         style="fill:#000000;fill-opacity:1"
         inkscape:connector-curvature="0"
         d="m 967.81165,87.886269 c -3e-5,0.507 -0.17988,0.933838 -0.53956,1.280517 -0.35972,0.34668 -0.79307,0.52002 -1.30004,0.52002 l -20.36011,0 c -0.507,0 -0.93364,-0.17334 -1.27991,-0.52002 -0.34628,-0.346679 -0.51941,-0.773517 -0.51941,-1.280517 l 0,-20.39917 c 0,-0.506976 0.17313,-0.933815 0.51941,-1.280518 0.34627,-0.346656 0.77291,-0.519995 1.27991,-0.520019 l 20.36011,0 c 0.50697,2.4e-5 0.94032,0.173363 1.30004,0.520019 0.35968,0.346703 0.53953,0.773542 0.53956,1.280518 z m -3.55957,-6.879883 0,-6.079102 c -3e-5,-0.427231 -0.22667,-0.640853 -0.67994,-0.640869 -0.0798,1.6e-5 -0.15993,0.02687 -0.24047,0.08057 l -5.27955,3.03955 c -0.18637,0.106621 -0.27955,0.293388 -0.27954,0.560303 -10e-6,0.266939 0.0932,0.466727 0.27954,0.599365 l 5.24048,3.000489 c 0.0797,0.05372 0.17291,0.08057 0.27954,0.08057 0.45327,8e-6 0.67991,-0.213615 0.67994,-0.640869 z m -6.99952,0 0,-6.079102 c -10e-6,-0.427231 -0.22666,-0.640853 -0.67993,-0.640869 -0.10744,1.6e-5 -0.20102,0.02687 -0.28076,0.08057 l -5.27954,3.03955 c -0.18719,0.106621 -0.28077,0.293388 -0.28076,0.560303 -1e-5,0.266939 0.0936,0.466727 0.28076,0.599365 l 5.23926,3.000489 c 0.0806,0.05372 0.17413,0.08057 0.28076,0.08057 0.48013,8e-6 0.7202,-0.213615 0.72021,-0.640869 z m -8.00048,2.23999 0,-10.479736 c -10e-6,-0.506168 -0.25351,-0.75926 -0.7605,-0.759278 l -0.27954,0 c -0.53305,1.8e-5 -0.79957,0.25311 -0.79956,0.759278 l 0,10.479736 c -10e-6,0.53386 0.26651,0.800787 0.79956,0.800781 l 0.27954,0 c 0.50699,6e-6 0.76049,-0.266921 0.7605,-0.800781 z"
         id="path3165" />
    </g>
    <g
       style="font-size:40px;font-style:normal;font-variant:normal;font-weight:normal;font-stretch:normal;line-height:125%;letter-spacing:0px;word-spacing:0px;fill:#800000;fill-opacity:1;stroke:none;font-family:LL_Record;-inkscape-font-specification:LL_Record"
       id="player-play"
       transform="translate(-506.07615,-60.609158)"
       onclick="parent.player.play()"
       inkscape:label="Play">
      <title
         id="title3129">Play</title>
      <path
         d="m 568.63104,89.906578 c -3e-5,0.507 -0.17337,0.933839 -0.52002,1.280518 -0.3467,0.34668 -0.77314,0.520019 -1.27929,0.520019 l -20.36011,0 c -0.50701,0 -0.94035,-0.173339 -1.30005,-0.520019 -0.35971,-0.346679 -0.53956,-0.773518 -0.53955,-1.280518 l 0,-20.39917 c -10e-6,-0.506976 0.17984,-0.933815 0.53955,-1.280517 0.3597,-0.346656 0.79304,-0.519996 1.30005,-0.52002 l 20.36011,0 c 0.50615,2.4e-5 0.93259,0.173364 1.27929,0.52002 0.34665,0.346702 0.51999,0.773541 0.52002,1.280517 z m -6.87988,-11.359863 -8.19946,-4.719238 c -0.10662,-0.08055 -0.24009,-0.120832 -0.40039,-0.12085 -0.69338,1.8e-5 -1.04005,0.333676 -1.04004,1.000976 l 0,9.399415 c -10e-6,0.266934 0.11331,0.500291 0.33996,0.700073 0.22663,0.199795 0.47342,0.299689 0.74036,0.299682 0.16031,7e-6 0.30679,-0.03987 0.43945,-0.119629 l 8.12012,-4.680175 c 0.29376,-0.159494 0.44065,-0.452869 0.44067,-0.880127 -2e-5,-0.42642 -0.14691,-0.719795 -0.44067,-0.880127 z"
         id="path3054"
         inkscape:connector-curvature="0"
         style="fill:#800000;fill-opacity:1" />
    </g>
    <g
       style="font-size:40px;font-style:normal;font-variant:normal;font-weight:normal;font-stretch:normal;line-height:125%;letter-spacing:0px;word-spacing:0px;fill:#800000;fill-opacity:1;stroke:none;font-family:LL_Record;-inkscape-font-specification:LL_Record"
       id="player-pause"
       transform="translate(-773.04712,-26.263966)"
       onclick="parent.player.pause()"
       inkscape:label="Pause">
      <title
         id="title3131">Pause</title>
      <path
         d="m 864.737,55.561386 c -3e-5,0.480145 -0.18008,0.90027 -0.54016,1.260376 -0.36014,0.360108 -0.78026,0.540161 -1.26038,0.540161 l -20.40039,0 c -0.48015,0 -0.90007,-0.180053 -1.25976,-0.540161 -0.35971,-0.360106 -0.53956,-0.780231 -0.53955,-1.260376 l 0,-20.39917 c -10e-6,-0.48012 0.17984,-0.900245 0.53955,-1.260376 0.35969,-0.360083 0.77961,-0.540137 1.25976,-0.540161 l 20.40039,0 c 0.48012,2.4e-5 0.90024,0.180078 1.26038,0.540161 0.36008,0.360131 0.54013,0.780256 0.54016,1.260376 z m -8.00049,-4.799805 0,-10.439453 c -2e-5,-0.533836 -0.25352,-0.800763 -0.7605,-0.800781 l -1.51977,0 c -0.53306,1.8e-5 -0.79958,0.266945 -0.79956,0.800781 l 0,10.439453 c -2e-5,0.533861 0.2665,0.800787 0.79956,0.800782 l 1.51977,0 c 0.50698,5e-6 0.76048,-0.266921 0.7605,-0.800782 z m -4.92065,0 0,-10.439453 c -2e-5,-0.533836 -0.26654,-0.800763 -0.79956,-0.800781 l -1.51978,0 c -0.50701,1.8e-5 -0.76051,0.266945 -0.7605,0.800781 l 0,10.439453 c -1e-5,0.533861 0.25349,0.800787 0.7605,0.800782 l 1.51978,0 c 0.53302,5e-6 0.79954,-0.266921 0.79956,-0.800782 z"
         id="path3045"
         inkscape:connector-curvature="0"
         style="fill:#800000;fill-opacity:1" />
    </g>
    <g
       style="font-size:40px;font-style:normal;font-variant:normal;font-weight:normal;font-stretch:normal;line-height:125%;letter-spacing:0px;word-spacing:0px;fill:#800000;fill-opacity:1;stroke:none;font-family:LL_Record;-inkscape-font-specification:LL_Record"
       id="player-volume"
       transform="translate(-736.4012,-57.578694)"
       onclick="parent.player.volume()"
       inkscape:label="Volume">
      <title
         id="title3135">Volume</title>
      <path
         d="m 886.3598,86.876114 c -2e-5,0.480144 -0.18008,0.900269 -0.54016,1.260376 -0.36013,0.360107 -0.78026,0.540161 -1.26037,0.540161 l -20.39917,0 c -0.48015,0 -0.90028,-0.180054 -1.26038,-0.540161 -0.36011,-0.360107 -0.54016,-0.780232 -0.54016,-1.260376 l 0,-20.39917 c 0,-0.480121 0.18005,-0.900245 0.54016,-1.260376 0.3601,-0.360084 0.78023,-0.540137 1.26038,-0.540161 l 20.39917,0 c 0.48011,2.4e-5 0.90024,0.180077 1.26037,0.540161 0.36008,0.360131 0.54014,0.780255 0.54016,1.260376 z m -4.56054,-8.719483 0,-3.1604 c -3e-5,-0.533026 -0.26655,-0.799546 -0.79957,-0.79956 l -2.55981,0 0,4.759521 2.55981,0 c 0.53302,1e-5 0.79954,-0.26651 0.79957,-0.799561 z m -4.03931,1.240235 0,-5.639649 c -0.64048,-0.454086 -1.827,-1.320784 -3.55957,-2.600097 -0.0806,-0.08055 -0.1876,-0.120832 -0.32105,-0.12085 -0.53305,1.8e-5 -0.79957,0.320249 -0.79956,0.960694 l 0,9.160156 c -1e-5,0.6128 0.27994,0.919196 0.83985,0.919189 0.10659,7e-6 0.2132,-0.02644 0.31982,-0.07934 z M 871.56,80.836075 c -1.0132,-0.932609 -1.51979,-2.318919 -1.51978,-4.158936 -10e-6,-1.787095 0.49316,-3.147364 1.47949,-4.08081 0.0537,-0.02684 0.0806,-0.08014 0.0806,-0.159912 -1e-5,-0.133448 -0.0667,-0.200179 -0.20019,-0.200196 -0.13348,1.7e-5 -0.33367,0.120052 -0.60059,0.360108 -0.98634,0.90659 -1.4795,2.266859 -1.47949,4.08081 -10e-6,1.840017 0.50658,3.226327 1.51977,4.158936 0.16031,0.133471 0.28035,0.227058 0.36011,0.280762 0.24006,0.186368 0.38654,0.226244 0.43945,0.119628 0.0537,-0.133456 0.0273,-0.266919 -0.0793,-0.40039 z m -2.64038,1.040039 c -1.04005,-1.146639 -1.56007,-2.866608 -1.56006,-5.159912 -10e-6,-2.239569 0.50658,-3.946111 1.51977,-5.119629 0.0537,-0.05288 0.0806,-0.13304 0.0806,-0.240479 -10e-6,-0.132632 -0.0667,-0.198957 -0.2002,-0.198974 -0.18637,1.7e-5 -0.39958,0.133074 -0.63964,0.39917 -1.01319,1.093766 -1.51979,2.813735 -1.51978,5.159912 -1e-5,2.293304 0.52001,4.0267 1.56006,5.200195 0.0797,0.106615 0.19937,0.213223 0.35889,0.319824 0.26691,0.240078 0.42723,0.280361 0.48095,0.12085 0.0529,-0.133457 0.026,-0.293776 -0.0806,-0.480957 z"
         id="path3042"
         inkscape:connector-curvature="0"
         style="fill:#800000;fill-opacity:1" />
    </g>
    <g
       style="font-size:40px;font-style:normal;font-variant:normal;font-weight:normal;font-stretch:normal;line-height:125%;letter-spacing:0px;word-spacing:0px;fill:#800000;fill-opacity:1;stroke:none;font-family:LL_Record;-inkscape-font-specification:LL_Record"
       id="player-back"
       transform="translate(-934.39111,-58.588849)"
       onclick="parent.player.back()"
       inkscape:label="Back">
      <title
         id="title3127">Back</title>
      <path
         d="m 967.81165,87.886269 c -3e-5,0.507 -0.17988,0.933838 -0.53956,1.280517 -0.35972,0.34668 -0.79307,0.52002 -1.30004,0.52002 l -20.36011,0 c -0.507,0 -0.93364,-0.17334 -1.27991,-0.52002 -0.34628,-0.346679 -0.51941,-0.773517 -0.51941,-1.280517 l 0,-20.39917 c 0,-0.506976 0.17313,-0.933815 0.51941,-1.280518 0.34627,-0.346656 0.77291,-0.519995 1.27991,-0.520019 l 20.36011,0 c 0.50697,2.4e-5 0.94032,0.173363 1.30004,0.520019 0.35968,0.346703 0.53953,0.773542 0.53956,1.280518 z m -3.55957,-6.879883 0,-6.079102 c -3e-5,-0.427231 -0.22667,-0.640853 -0.67994,-0.640869 -0.0798,1.6e-5 -0.15993,0.02687 -0.24047,0.08057 l -5.27955,3.03955 c -0.18637,0.106621 -0.27955,0.293388 -0.27954,0.560303 -10e-6,0.266939 0.0932,0.466727 0.27954,0.599365 l 5.24048,3.000489 c 0.0797,0.05372 0.17291,0.08057 0.27954,0.08057 0.45327,8e-6 0.67991,-0.213615 0.67994,-0.640869 z m -6.99952,0 0,-6.079102 c -10e-6,-0.427231 -0.22666,-0.640853 -0.67993,-0.640869 -0.10744,1.6e-5 -0.20102,0.02687 -0.28076,0.08057 l -5.27954,3.03955 c -0.18719,0.106621 -0.28077,0.293388 -0.28076,0.560303 -1e-5,0.266939 0.0936,0.466727 0.28076,0.599365 l 5.23926,3.000489 c 0.0806,0.05372 0.17413,0.08057 0.28076,0.08057 0.48013,8e-6 0.7202,-0.213615 0.72021,-0.640869 z m -8.00048,2.23999 0,-10.479736 c -10e-6,-0.506168 -0.25351,-0.75926 -0.7605,-0.759278 l -0.27954,0 c -0.53305,1.8e-5 -0.79957,0.25311 -0.79956,0.759278 l 0,10.479736 c -10e-6,0.53386 0.26651,0.800787 0.79956,0.800781 l 0.27954,0 c 0.50699,6e-6 0.76049,-0.266921 0.7605,-0.800781 z"
         id="path3039"
         inkscape:connector-curvature="0"
         style="fill:#800000;fill-opacity:1" />
    </g>
    <g
       id="player-next"
       style="font-size:40px;font-style:normal;font-variant:normal;font-weight:normal;font-stretch:normal;line-height:125%;letter-spacing:0px;word-spacing:0px;fill:#800000;fill-opacity:1;stroke:none;font-family:LL_Record;-inkscape-font-specification:LL_Record"
       transform="matrix(-1,0,0,-1,1064.6363,96.784516)"
       onclick="parent.player.next()"
       inkscape:label="Next">
      <title
         id="title3133">Next</title>
      <path
         id="path3061"
         d="m 967.81165,87.886269 c -3e-5,0.507 -0.17988,0.933838 -0.53956,1.280517 -0.35972,0.34668 -0.79307,0.52002 -1.30004,0.52002 l -20.36011,0 c -0.507,0 -0.93364,-0.17334 -1.27991,-0.52002 -0.34628,-0.346679 -0.51941,-0.773517 -0.51941,-1.280517 l 0,-20.39917 c 0,-0.506976 0.17313,-0.933815 0.51941,-1.280518 0.34627,-0.346656 0.77291,-0.519995 1.27991,-0.520019 l 20.36011,0 c 0.50697,2.4e-5 0.94032,0.173363 1.30004,0.520019 0.35968,0.346703 0.53953,0.773542 0.53956,1.280518 z m -3.55957,-6.879883 0,-6.079102 c -3e-5,-0.427231 -0.22667,-0.640853 -0.67994,-0.640869 -0.0798,1.6e-5 -0.15993,0.02687 -0.24047,0.08057 l -5.27955,3.03955 c -0.18637,0.106621 -0.27955,0.293388 -0.27954,0.560303 -10e-6,0.266939 0.0932,0.466727 0.27954,0.599365 l 5.24048,3.000489 c 0.0797,0.05372 0.17291,0.08057 0.27954,0.08057 0.45327,8e-6 0.67991,-0.213615 0.67994,-0.640869 z m -6.99952,0 0,-6.079102 c -10e-6,-0.427231 -0.22666,-0.640853 -0.67993,-0.640869 -0.10744,1.6e-5 -0.20102,0.02687 -0.28076,0.08057 l -5.27954,3.03955 c -0.18719,0.106621 -0.28077,0.293388 -0.28076,0.560303 -1e-5,0.266939 0.0936,0.466727 0.28076,0.599365 l 5.23926,3.000489 c 0.0806,0.05372 0.17413,0.08057 0.28076,0.08057 0.48013,8e-6 0.7202,-0.213615 0.72021,-0.640869 z m -8.00048,2.23999 0,-10.479736 c -10e-6,-0.506168 -0.25351,-0.75926 -0.7605,-0.759278 l -0.27954,0 c -0.53305,1.8e-5 -0.79957,0.25311 -0.79956,0.759278 l 0,10.479736 c -10e-6,0.53386 0.26651,0.800787 0.79956,0.800781 l 0.27954,0 c 0.50699,6e-6 0.76049,-0.266921 0.7605,-0.800781 z"
         inkscape:connector-curvature="0"
         style="fill:#800000;fill-opacity:1" />
    </g>
  </g>
</svg>
