<?xml version="1.0" encoding="UTF-8" standalone="no"?>
<!-- Created with Inkscape (http://www.inkscape.org/) -->

<svg
   xmlns:dc="http://purl.org/dc/elements/1.1/"
   xmlns:cc="http://creativecommons.org/ns#"
   xmlns:rdf="http://www.w3.org/1999/02/22-rdf-syntax-ns#"
   xmlns:svg="http://www.w3.org/2000/svg"
   xmlns="http://www.w3.org/2000/svg"
   version="1.1"
   width="917.625"
   height="690.0426"
   id="svg3171">
  <defs
     id="defs3173" />
  <metadata
     id="metadata3176">
    <rdf:RDF>
      <cc:Work
         rdf:about="">
        <dc:format>image/svg+xml</dc:format>
        <dc:type
           rdf:resource="http://purl.org/dc/dcmitype/StillImage" />
        <dc:title></dc:title>
      </cc:Work>
    </rdf:RDF>
  </metadata>
  <g
     transform="translate(218.8125,-90.457375)"
     id="layer1">
    <path
       d="m 240.00011,408.09351 c -73.40805,0 -146.802416,4.27363 -213.281216,12.875 -66.4788,8.60136 -120.8014,20.63686 -161.750004,36.53125 -20.4743,7.9472 -37.723,16.64048 -52.4063,28.8125 -14.6832,12.17202 -28.8751,30.92126 -28.8751,55.125 0,24.20374 14.1919,42.98423 28.8751,55.15625 14.6833,12.17202 31.932,20.83405 52.4063,28.78125 40.948604,15.89439 95.271204,27.92989 161.750004,36.5313 132.957626,17.2027 293.604856,17.2027 426.562466,0 66.47881,-8.60141 120.80144,-20.6369 161.75,-36.5313 20.47428,-7.9472 37.72304,-16.60923 52.40625,-28.78125 14.68321,-12.17202 28.875,-30.95253 28.875,-55.15625 0,-24.20372 -14.19179,-42.95298 -28.875,-55.125 -14.68321,-12.17202 -31.93197,-20.8653 -52.40625,-28.8125 -40.94856,-15.89439 -95.27119,-27.92989 -161.75,-36.53125 -66.47881,-8.60137 -139.8732,-12.875 -213.28125,-12.875 z m 0,80.125 c 70.34861,0 140.69879,4.02886 203.03125,12.09375 62.33245,8.06489 112.10149,19.7757 143.03125,31.78125 8.24185,3.19912 14.99394,6.44216 20.25,9.34375 -5.25803,2.90366 -12.00014,6.17278 -20.25,9.375 -30.92976,12.00555 -80.69879,23.71636 -143.03125,31.78125 -124.66491,16.12977 -281.39754,16.12977 -406.062466,0 -62.3324,-8.06489 -112.1015,-19.7757 -143.031304,-31.78125 -8.2498,-3.20222 -14.9919,-6.47134 -20.25,-9.375 5.2561,-2.90159 12.0082,-6.14463 20.25,-9.34375 30.929804,-12.00555 80.698904,-23.71636 143.031304,-31.78125 62.33245,-8.06489 132.682606,-12.09375 203.031216,-12.09375 z"
       id="path9213"
       style="font-size:medium;font-style:normal;font-variant:normal;font-weight:normal;font-stretch:normal;text-indent:0;text-align:start;text-decoration:none;line-height:normal;letter-spacing:normal;word-spacing:normal;text-transform:none;direction:ltr;block-progression:tb;writing-mode:lr-tb;text-anchor:start;baseline-shift:baseline;color:#000000;fill:#3e3e3e;fill-opacity:1;fill-rule:nonzero;stroke:#000000;stroke-width:5;stroke-miterlimit:4;stroke-opacity:1;stroke-dasharray:none;marker:none;visibility:visible;display:inline;overflow:visible;enable-background:accumulate;font-family:Sans;-inkscape-font-specification:Sans" />
    <g
       transform="matrix(1.6835981,0,0,1.6835981,-107.32201,-1737.1682)"
       id="g3040"
       style="fill:#000000;fill-opacity:1;stroke:none">
      <path
         d="m -8.0261475,1085.5476 c -5.5181205,-0.012 -11.4460105,0.5774 -17.8750005,1.875 62.91371,1.8874 64.31156,74.3721 109.09375,94.5 28.532078,12.824 69.720118,15.5786 95.906248,15.9062 l 0,0.5938 70,0 0,-0.5938 c 26.18613,-0.3276 67.37417,-3.0822 95.90625,-15.9062 44.78219,-20.1279 46.18004,-92.6126 109.09375,-94.5 -68.57594,-13.8411 -81.21749,53.2217 -125.8125,64.9687 -26.31097,6.9307 -57.75312,5.6803 -79.1875,3.5 l 0,-4.4687 -70,0 0,4.4687 c -21.43438,2.1803 -52.87653,3.4307 -79.187498,-3.5 -40.41423,-10.6457 -54.5957,-66.7242 -107.9374995,-66.8437 z"
         id="path3909"
         style="fill:#000000;fill-opacity:1;stroke:none" />
      <path
         d="m 454.09885,1087.4226 c -62.91371,1.8874 -64.30203,74.3639 -109.08422,94.4918 -44.7822,20.1279 -120.91578,15.5082 -120.91578,15.5082 l 0,-45 c 0,0 59.59702,11.7198 104.19204,-0.027 44.59501,-11.747 57.23202,-78.814 125.80796,-64.9729 z"
         id="path3871"
         style="fill:#000000;fill-opacity:1;stroke:none" />
      <path
         d="m -25.901148,1087.4226 c 62.91371,1.8874 64.30203,74.3639 109.08422,94.4918 44.782198,20.1279 120.915778,15.5082 120.915778,15.5082 l 0,-45 c 0,0 -59.59702,11.7198 -104.192038,-0.027 -44.59501,-11.747 -57.23202,-78.814 -125.80796,-64.9729 z"
         id="path3881"
         style="fill:#000000;fill-opacity:1;stroke:none" />
      <rect
         width="69.999992"
         height="47"
         x="179.09885"
         y="1151.4226"
         id="rect3885"
         style="fill:#000000;fill-opacity:1;fill-rule:nonzero;stroke:none" />
    </g>
    <path
       d="m 252.40434,175.64148 c -35.48237,0 -70.37309,1.43004 -104.53806,4.18213 0.78571,3.29942 1.16879,6.64865 1.16879,10.03709 0,53.53831 -100.501396,97.03739 -224.992266,97.62278 l 0,102.28284 c 0,272.86724 328.361536,380.21497 328.361536,380.21497 0,0 328.36154,-107.34773 328.36154,-380.21497 l 0,-102.28284 C 456.275,286.89809 355.7736,243.39901 355.7736,189.8607 c 0,-3.38844 0.38309,-6.73767 1.1688,-10.03709 -34.16523,-2.75236 -69.05755,-4.18213 -104.53806,-4.18213 z"
       id="path2855"
       style="fill:#9b0000;fill-opacity:1;fill-rule:evenodd;stroke:#000000;stroke-width:20;stroke-miterlimit:4;stroke-opacity:1;stroke-dasharray:none;display:inline" />
    <text
       x="228.60429"
       y="380.65167"
       id="text3075"
       xml:space="preserve"
       style="font-size:200px;font-style:normal;font-variant:normal;font-weight:normal;font-stretch:normal;line-height:125%;letter-spacing:0px;word-spacing:0px;fill:#000000;fill-opacity:1;stroke:none;font-family:DubbaDubbaA;-inkscape-font-specification:DubbaDubbaA"><tspan
         x="228.60429"
         y="380.65167"
         id="tspan3077">Y</tspan></text>
    <text
       x="234.90617"
       y="677.53357"
       id="text3079"
       xml:space="preserve"
       style="font-size:200px;font-style:normal;font-variant:normal;font-weight:normal;font-stretch:normal;line-height:125%;letter-spacing:0px;word-spacing:0px;fill:#000000;fill-opacity:1;stroke:none;font-family:DubbaDubbaA;-inkscape-font-specification:DubbaDubbaA"><tspan
         x="234.90617"
         y="677.53357"
         id="tspan3081">?</tspan></text>
    <text
       x="-18.611135"
       y="645.57544"
       id="text3083"
       xml:space="preserve"
       style="font-size:450px;font-style:normal;font-variant:normal;font-weight:normal;font-stretch:normal;line-height:125%;letter-spacing:0px;word-spacing:0px;fill:#000000;fill-opacity:1;stroke:none;font-family:DubbaDubbaA;-inkscape-font-specification:DubbaDubbaA"><tspan
         x="-18.611135"
         y="645.57544"
         id="tspan3085">W</tspan></text>
    <text
       x="308.19727"
       y="646.10571"
       id="text3087"
       xml:space="preserve"
       style="font-size:450px;font-style:normal;font-variant:normal;font-weight:normal;font-stretch:normal;line-height:125%;letter-spacing:0px;word-spacing:0px;fill:#000000;fill-opacity:1;stroke:none;font-family:DubbaDubbaA;-inkscape-font-specification:DubbaDubbaA"><tspan
         x="308.19727"
         y="646.10571"
         id="tspan3089">D</tspan></text>
    <path
       d="m 687.38131,574.24619 c 5.38335,-9.24209 8.9313,-19.98815 8.9313,-32.09001 0,-24.20372 -14.19179,-42.95298 -28.875,-55.125 -14.68321,-12.17202 -31.93197,-20.8653 -52.40625,-28.8125 -40.94856,-15.89439 -95.27119,-27.92989 -161.75,-36.53125 -66.47881,-8.60137 -139.8732,-12.875 -213.28125,-12.875 -73.40805,0 -146.802416,4.27363 -213.281276,12.875 -66.47884,8.60136 -120.80144,20.63686 -161.750044,36.53125 -20.4743,7.9472 -37.723,16.64048 -52.4063,28.8125 -14.6832,12.17202 -28.8751,30.92126 -28.8751,55.125 0,12.10187 3.548,22.84793 8.9313,32.09002 7.35021,13.13542 16.46078,20.10958 24.69118,26.20357 -7.61283,-16.79066 -1.14279,-34.4615 56.37762,-58.29359 5.2561,-2.90159 12.0082,-6.14463 20.25,-9.34375 30.929804,-12.00555 80.699044,-23.71636 143.031374,-31.78125 62.33248,-8.06489 132.682636,-12.09375 203.031246,-12.09375 70.34861,0 140.69879,4.02886 203.03125,12.09375 62.33245,8.06489 112.10149,19.7757 143.03125,31.78125 8.24185,3.19912 14.99394,6.44216 20.25,9.34375 59.28075,27.6462 60.46969,42.9699 56.37757,56.53323 12.63127,-7.26756 17.34093,-12.77476 24.69113,-24.44322 z"
       id="path9211"
       style="font-size:medium;font-style:normal;font-variant:normal;font-weight:normal;font-stretch:normal;text-indent:0;text-align:start;text-decoration:none;line-height:normal;letter-spacing:normal;word-spacing:normal;text-transform:none;direction:ltr;block-progression:tb;writing-mode:lr-tb;text-anchor:start;baseline-shift:baseline;color:#000000;fill:#ffffff;fill-opacity:1;fill-rule:nonzero;stroke:#000000;stroke-width:5;stroke-miterlimit:4;stroke-opacity:1;stroke-dasharray:none;marker:none;visibility:visible;display:inline;overflow:visible;enable-background:accumulate;font-family:Sans;-inkscape-font-specification:Sans" />
    <g
       transform="translate(1257.9166,-2.0100986)"
       id="g6312"
       style="font-size:72px;font-style:normal;font-variant:normal;font-weight:normal;font-stretch:normal;line-height:125%;letter-spacing:0px;word-spacing:0px;fill:#000000;fill-opacity:1;stroke:none;font-family:Carousel;-inkscape-font-specification:Carousel">
      <path
         d="m -1294.0614,449.10347 c 0.3756,1.63771 0.3011,3.35381 -0.2234,5.14832 -0.7617,2.68761 -1.1717,4.33339 -1.23,4.93735 -0.8853,7.73712 -0.8473,18.31627 0.114,31.73748 0.7621,3.32242 1.9284,5.61579 3.499,6.88012 0.9748,0.81037 1.8128,1.13513 2.5139,0.9743 1.0294,-0.23613 1.7247,-0.96223 2.086,-2.1783 0.076,-0.31192 0.2542,-0.50015 0.5355,-0.56469 0.4683,-0.10741 0.7507,0.0495 0.8474,0.47064 0.1929,0.84097 -0.2737,1.7603 -1.3996,2.75801 -1.126,0.99773 -2.1802,1.60926 -3.1624,1.83459 -1.0295,0.23615 -2.4733,0.3825 -4.3313,0.43902 -1.8582,0.0566 -3.1149,0.16 -3.7702,0.31032 -3.3682,0.77264 -6.2496,3.13266 -8.6444,7.08006 -0.1079,0.17202 -0.2553,0.27948 -0.4423,0.32238 -0.4683,0.10744 -0.756,-0.0723 -0.8631,-0.53917 -0.043,-0.18703 -0.01,-0.36744 0.099,-0.54122 1.2565,-3.53747 1.5949,-6.56978 1.0152,-9.09693 -1.0517,-4.58451 -4.3416,-10.23213 -9.8697,-16.94287 -0.9288,2.82362 -1.0528,8.29403 -0.372,16.41125 0.2253,0.98231 0.5839,2.00843 1.0759,3.07835 0.7602,1.59752 1.5165,2.21155 2.2689,1.84207 0.6689,-0.30073 1.1066,-0.96699 1.3133,-1.99881 0.075,-0.31335 0.2537,-0.50229 0.535,-0.56683 0.7025,-0.16113 0.9882,0.11823 0.8573,0.83808 -0.2608,1.43798 -0.4275,2.21489 -0.5,2.33073 -0.5337,1.10682 -1.6429,1.85346 -3.3276,2.23993 -0.7953,0.18244 -1.8801,0.28363 -3.2544,0.30357 -1.3743,0.02 -2.225,0.0674 -2.5519,0.14243 -4.913,1.12702 -8.9594,4.41933 -12.1395,9.87692 -0.1078,0.17202 -0.2553,0.27948 -0.4423,0.32239 -0.4683,0.10743 -0.7562,-0.073 -0.8636,-0.54132 -0.043,-0.18703 -0.01,-0.36656 0.097,-0.53858 1.2576,-3.53924 1.5967,-6.57171 1.0173,-9.09742 -1.0412,-4.53883 -3.9072,-11.34248 -8.598,-20.41095 -5.0711,-9.8679 -8.6125,-14.57111 -10.6242,-14.10967 -1.0294,0.23618 -1.3617,1.14952 -0.9969,2.74 0.1612,0.7025 0.058,1.37883 -0.31,2.02901 -0.3678,0.65026 -0.8559,1.04513 -1.4641,1.18462 -1.8718,0.42942 -3.1725,-0.9464 -3.9023,-4.12749 -0.4935,-2.15159 -0.2378,-4.20458 0.7671,-6.15898 1.005,-1.95431 2.5133,-3.16223 4.525,-3.62376 1.2622,-0.28948 2.9,-0.39429 4.9134,-0.31442 2.0134,0.08 3.6283,-0.0196 4.8448,-0.2987 4.9115,-1.12664 8.641,-3.11461 11.1885,-5.96393 0.097,-0.21907 0.2626,-0.3555 0.4968,-0.40927 0.4683,-0.10737 0.756,0.0724 0.8631,0.53918 0.032,0.13997 0.017,0.29141 -0.045,0.45432 -2.3805,4.43563 -3.1628,8.43169 -2.347,11.98818 0.397,1.73049 1.1914,4.01075 2.3831,6.8408 1.4817,3.45193 3.0766,6.43449 4.7849,8.94769 -0.3048,-2.83515 0.2916,-7.42879 1.7892,-13.78092 1.3495,-5.92283 1.7719,-9.98435 1.2672,-12.18458 -0.2575,-1.12216 -0.9566,-2.5616 -2.0975,-4.31833 -0.4316,-0.59076 -0.2734,-0.97198 0.4748,-1.14366 0.3284,-0.0753 0.6182,0.006 0.8694,0.24241 0.3765,0.35705 2.6496,3.50491 6.8193,9.4436 4.3846,6.23364 7.3352,10.1857 8.8516,11.85618 0.346,-6.43205 0.3257,-10.49047 -0.061,-12.17528 -0.322,-1.40343 -0.8741,-2.63088 -1.6563,-3.68236 -0.8831,-1.27472 -1.8165,-1.79927 -2.8002,-1.57366 -0.3741,0.0859 -0.795,0.34249 -1.2628,0.76986 -0.4678,0.42748 -0.7952,0.66264 -0.9822,0.70549 -0.4684,0.10749 -0.7615,-0.0958 -0.8794,-0.60984 -0.054,-0.2341 0.02,-0.44799 0.2226,-0.64168 2.0595,-1.75288 4.6335,-2.98357 7.7217,-3.69206 0.7953,-0.18238 1.8494,-0.36296 3.1626,-0.54176 1.3131,-0.17868 2.3672,-0.35926 3.1625,-0.54175 1.6376,-0.37561 3.1389,-1.07695 4.504,-2.10401 1.3649,-1.02694 1.9293,-2.05514 1.6932,-3.08462 -0.1932,-0.84231 -0.7721,-1.32495 -1.7366,-1.44793 -0.3011,-0.0285 -0.484,-0.18348 -0.5484,-0.46482 -0.1717,-0.74807 0.1015,-1.05723 0.8197,-0.92746 2.1013,0.35513 3.3344,1.32793 3.6993,2.91838 z"
         id="path6310" />
      <path
         d="m -1236.2551,491.77184 c -1.4348,1.05567 -2.9109,1.70479 -4.4282,1.94736 -0.4745,0.0759 -1.4397,0.12075 -2.8957,0.1347 -1.456,0.014 -3.0606,0.16108 -4.8137,0.44134 -1.8486,0.29553 -3.3448,0.97233 -4.4884,2.0304 -0.04,0.0539 -0.7324,0.89366 -2.0761,2.51924 -0.1191,0.16441 -0.2734,0.26177 -0.4629,0.29206 -0.5222,0.0835 -0.825,-0.13587 -0.9085,-0.65805 -0.038,-0.23577 0.027,-0.44041 0.1934,-0.6139 0.8277,-0.90965 1.4641,-2.85828 1.9092,-5.84589 0.5276,-3.38946 0.5376,-6.67243 0.03,-9.8489 -1.1063,-6.91992 -2.7971,-10.19802 -5.0724,-9.8343 -1.6113,0.25763 -2.9877,1.37738 -4.1291,3.35924 -0.495,0.85649 -1.1969,2.54856 -2.1057,5.07623 1.0456,5.32458 2.0583,9.07525 3.0383,11.25204 0.8807,1.85296 1.955,2.94511 3.2229,3.27645 0.4092,0.12891 0.6405,0.3597 0.6937,0.69239 0.083,0.52073 -0.1632,0.80267 -0.7393,0.84581 -3.9397,0.29011 -5.8625,0.42765 -5.7684,0.41262 -3.4123,0.5455 -5.6717,1.00387 -6.7783,1.37512 -3.1007,0.98225 -5.42,2.59245 -6.958,4.8306 -0.1191,0.16441 -0.2495,0.25795 -0.3913,0.28062 -0.4744,0.0758 -0.7495,-0.12274 -0.8251,-0.59573 -0.03,-0.18949 -0.01,-0.33948 0.073,-0.44998 1.745,-2.46556 2.5857,-6.02671 2.5221,-10.68347 -0.048,-3.34632 -0.6864,-8.85915 -1.9141,-16.53851 -1.053,-6.58722 -2.2397,-11.574 -3.5598,-14.96033 -1.2808,-3.14927 -2.5135,-4.62924 -3.6982,-4.43989 -0.379,0.0606 -0.7559,0.66754 -1.1308,1.82073 -0.3749,1.15327 -1.0122,1.8018 -1.9119,1.94559 -1.3756,0.21995 -2.2263,-0.68913 -2.5522,-2.72726 -0.2726,-1.70535 0.1884,-3.38264 1.3829,-5.03189 1.1946,-1.64915 2.6931,-2.61781 4.4954,-2.90599 1.5159,-0.24229 3.2753,-0.25616 5.2781,-0.0416 2.0028,0.21465 3.8815,0.18169 5.6361,-0.0989 2.3216,-0.3711 5.2926,-1.55144 8.9131,-3.54104 0.7277,-0.31061 1.1521,-0.087 1.2733,0.67094 0.053,0.33274 -0.075,0.59655 -0.3853,0.79144 -1.2429,0.73428 -2.0725,2.69006 -2.4888,5.86733 -0.6218,4.61951 -0.2734,11.05314 1.0451,19.30091 1.3515,-2.79277 3.041,-5.29915 5.0685,-7.51916 2.7022,-2.86183 5.499,-4.5239 8.3906,-4.98619 2.9855,-0.47725 5.4945,0.7742 7.5271,3.75433 1.6013,2.4172 2.7165,5.59298 3.3455,9.52737 0.1591,0.9952 0.3258,2.34185 0.5001,4.03995 0.1743,1.69814 0.3485,3.0918 0.5227,4.18097 0.3864,2.41708 1.105,4.70834 2.1558,6.8738 1.0508,2.16547 1.8836,3.04109 2.4983,2.62684 0.6146,-0.41423 0.9788,-0.26552 1.0926,0.44614 0.045,0.28351 -0.063,0.51965 -0.3251,0.70839 z"
         id="path6308" />
      <path
         d="m -1212.4762,449.3508 c 0.066,0.13653 -0.027,0.36577 -0.2776,0.68774 -0.2507,0.32204 -0.3732,0.50631 -0.3674,0.55278 -0.9824,1.4287 -1.6881,2.16972 -2.1169,2.22305 -0.2864,0.0357 -0.8489,-0.20872 -1.6877,-0.7332 -0.9944,-0.60098 -1.5745,-1.18198 -1.7403,-1.74299 -0.1899,-0.36308 -0.033,-0.9509 0.4703,-1.76347 0.5033,-0.81249 1.0708,-1.40273 1.7026,-1.77073 0.4936,-0.30348 0.8505,-0.34789 1.0706,-0.13324 0.7923,0.53028 1.7744,1.42363 2.9464,2.68006 z m -9.6463,1.20058 c 0.066,0.13652 0.018,0.33581 -0.1426,0.59787 -0.2869,0.4225 -0.4304,0.63373 -0.4304,0.63369 -0.792,1.405 -1.4737,2.14303 -2.0449,2.2141 -0.3344,0.0416 -0.9479,-0.22041 -1.8405,-0.78616 -0.8926,-0.56568 -1.4458,-1.12604 -1.6595,-1.68108 -0.1839,-0.31511 -0.026,-0.89094 0.4747,-1.72749 0.5004,-0.83648 1.0664,-1.43871 1.6982,-1.80671 0.4996,-0.25551 0.8804,-0.30291 1.1426,-0.1422 0.4821,0.3755 0.9883,0.74796 1.5185,1.1174 0.7021,0.58873 1.13,1.11559 1.2839,1.58058 z m 22.297,21.16947 c 0.5926,4.7621 -0.368,8.70266 -2.8818,11.82168 -1.2991,1.61274 -3.8782,3.62687 -7.7373,6.0424 -3.0911,1.98043 -4.8064,3.74165 -5.1459,5.28367 -0.803,-1.39982 -2.9759,-2.53246 -6.5186,-3.39792 -4.2322,-0.97303 -7.2318,-2.14744 -8.9987,-3.52324 -3.161,-2.45996 -5.0943,-6.52452 -5.7999,-12.19368 -0.575,-4.61961 0.4694,-8.47391 3.1332,-11.56291 1.3516,-1.57052 4.0672,-3.64962 8.147,-6.23732 3.3235,-2.05803 5.197,-3.91201 5.6205,-5.56195 0.6843,1.60801 2.7076,3.09805 6.0698,4.47012 4.2922,1.83504 7.1645,3.3397 8.6171,4.51398 3.1116,2.46615 4.9431,5.91453 5.4946,10.34517 z m -13.3685,1.59078 c -0.332,-2.66739 -1.078,-5.16223 -2.2379,-7.48452 -1.2856,-2.5487 -2.5709,-3.7431 -3.8559,-3.58319 -1.3824,0.17208 -2.3597,1.64807 -2.9319,4.42799 -0.5613,2.4878 -0.6729,5.08938 -0.335,7.80474 0.3497,2.80988 1.0747,5.33169 2.1749,7.56543 1.2899,2.59543 2.6493,3.80422 4.0783,3.62637 1.3823,-0.17205 2.3567,-1.6713 2.9231,-4.49776 0.4726,-2.4295 0.5341,-5.04918 0.1844,-7.85906 z"
         id="path6306" />
      <path
         d="m -1189.3984,435.32592 c -1.1819,3.45459 -1.3034,9.64553 -0.3647,18.57283 -0.025,0.67721 -1.0158,1.11874 -2.9737,1.32459 -2.1488,0.22598 -3.2709,-0.11411 -3.3662,-1.02028 -0.8181,-7.78079 -2.0444,-12.33352 -3.6787,-13.6582 -0.264,-0.21375 -0.4086,-0.4401 -0.4337,-0.67907 -0.025,-0.23887 0.061,-0.45303 0.2583,-0.64247 0.1974,-0.18936 0.3699,-0.26752 0.5178,-0.23451 0.7934,0.20531 1.6937,0.27929 2.7011,0.22192 1.1035,-0.0674 2.2241,-0.42678 3.3619,-1.0782 1.453,-0.87593 2.422,-1.99119 2.9071,-3.34578 0.033,-0.14777 0.145,-0.23172 0.3358,-0.25184 0.2389,-0.0251 0.4518,0.049 0.6387,0.22227 0.1869,0.17336 0.219,0.36294 0.096,0.56874 z"
         id="path6304" />
      <path
         d="m -1149.844,458.36736 c 0.1274,1.43432 -0.3739,2.7079 -1.5037,3.82074 -1.1299,1.11289 -2.4834,1.73937 -4.0607,1.87944 -2.0559,0.18262 -4.2293,-0.68465 -6.5201,-2.60182 -2.291,-1.91712 -3.7231,-2.85023 -4.2965,-2.79932 -0.3823,0.034 -0.5586,0.21802 -0.5289,0.55213 0.1273,1.43432 1.7081,2.95644 4.7424,4.56636 5.4128,2.89283 8.2495,4.44826 8.5101,4.66628 3.0767,2.08855 4.7297,4.42338 4.959,7.00452 0.2803,3.15604 -0.6476,5.73223 -2.7835,7.72858 -2.136,1.99636 -4.9249,3.14739 -8.3669,3.45311 -2.5345,0.22511 -5.2126,-0.22343 -8.0344,-1.34562 -2.8218,-1.12219 -4.7353,-1.63864 -5.7406,-1.54935 -0.8594,0.0763 -1.2424,0.6405 -1.149,1.69251 0.098,1.09871 0.8275,2.26257 2.1896,3.49161 -2.3831,0.30725 -4.697,-0.51151 -6.9418,-2.45628 -2.2448,-1.94476 -3.484,-4.23179 -3.7175,-6.86109 -0.1912,-2.15217 0.3168,-4.02893 1.5238,-5.63029 1.2071,-1.60133 2.8145,-2.49117 4.8222,-2.6695 1.6254,-0.14436 3.4088,0.39652 5.3501,1.62264 0.8155,0.50553 2.3382,1.64677 4.5681,3.42373 1.5094,1.2645 2.5508,1.87128 3.1242,1.82034 0.6216,-0.0552 0.9069,-0.36952 0.856,-0.94295 -0.2082,-2.34331 -1.9575,-4.14017 -5.248,-5.39059 -2.9874,-1.0832 -5.999,-2.165 -9.0347,-3.24541 -3.3344,-1.72739 -5.1544,-4.31209 -5.4601,-7.75413 -0.2591,-2.91672 0.776,-5.37044 3.1051,-7.36119 2.1989,-1.83353 5.0435,-2.90531 8.5336,-3.21534 2.1989,-0.19526 4.3213,0.0986 6.3674,0.88154 1.0972,0.432 2.5144,1.19731 4.2518,2.29593 1.2798,0.84961 2.1583,1.25321 2.6355,1.2108 0.8141,-0.0723 1.1555,-0.84894 1.024,-2.32995 -0.136,-1.53056 -1.1413,-3.08027 -3.016,-4.64912 1.726,-0.10473 3.6991,0.94945 5.9193,3.16255 2.3799,2.39016 3.6866,4.89987 3.9202,7.52914 z"
         id="path6302" />
      <path
         d="m -1068.0594,434.51712 c 0.074,1.53489 -0.822,3.40377 -2.6871,5.60664 -2.2814,2.51333 -4.5383,5.04891 -6.7706,7.60673 -3.2213,3.9517 -5.9495,8.16784 -8.1847,12.64845 0.3018,6.27987 1.1961,10.89827 2.6831,13.85519 1.0643,2.15892 2.2439,3.20726 3.5388,3.14503 1.1983,-0.0576 2.1917,-0.38177 2.9802,-0.97255 0.7884,-0.59077 1.1827,-0.88616 1.1827,-0.88617 0.5282,-0.0254 0.8061,0.24944 0.8338,0.82446 0.01,0.14485 -0.058,0.29242 -0.1943,0.4427 -1.3738,1.4123 -2.9481,2.16109 -4.7228,2.24639 -0.6234,0.0299 -1.7661,5.5e-4 -3.4283,-0.0882 -1.6622,-0.0888 -2.9008,-0.11357 -3.7157,-0.0744 -6.4248,0.30876 -11.8234,2.97113 -16.1961,7.98711 -0.1365,0.15028 -0.2764,0.22886 -0.4198,0.23576 -0.5282,0.0254 -0.805,-0.2253 -0.8303,-0.75203 -0.01,-0.14339 0.059,-0.29099 0.1965,-0.4428 1.8636,-2.20431 3.1858,-6.18423 3.9666,-11.93977 0.5194,-4.20604 0.6788,-8.39479 0.4784,-12.56626 -2.5135,-4.29932 -5.027,-8.59938 -7.5406,-12.90021 -3.3677,-5.07658 -6.1781,-7.56074 -8.4314,-7.45249 -0.9115,0.0438 -1.3546,0.32985 -1.3292,0.85801 0.018,0.38339 0.4039,0.90528 1.1564,1.56568 0.7525,0.66047 1.1415,1.25479 1.1669,1.78295 0.023,0.47849 -0.1485,0.90689 -0.5146,1.28522 -0.366,0.37839 -0.8124,0.58023 -1.3392,0.60551 -1.3914,0.0669 -2.5745,-0.54938 -3.5491,-1.84885 -0.9208,-1.1568 -1.4216,-2.57434 -1.5023,-4.25261 -0.2396,-4.98639 2.9488,-7.63859 9.5652,-7.95662 0.8632,-0.0414 1.7405,-0.0356 2.6318,0.0176 0.8912,0.0533 1.2893,0.0822 1.1942,0.0867 4.41,-0.21189 9.3552,-2.29959 14.8359,-6.2631 0.1364,-0.15022 0.3005,-0.22997 0.4922,-0.23923 0.5282,-0.0253 0.805,0.22607 0.8304,0.75422 0.011,0.23854 -0.075,0.43482 -0.2599,0.58883 -3.3225,3.85979 -4.9215,7.08382 -4.7971,9.6721 0.099,2.06162 0.7617,4.36083 1.988,6.89763 0.5351,1.12701 1.7712,3.35026 3.7082,6.66977 1.4776,-6.27002 2.1311,-11.17912 1.9606,-14.72731 -0.044,-0.9115 -0.1856,-2.10614 -0.4252,-3.58394 -0.2397,-1.4777 -0.3734,-2.50481 -0.4011,-3.08134 -0.021,-0.43158 0.1613,-0.65664 0.5461,-0.67519 0.1916,-0.009 1.563,1.03034 4.1139,3.11849 2.5509,2.08825 4.7613,3.08742 6.6313,2.99751 0.7666,-0.0368 1.6722,-0.44073 2.7168,-1.21177 1.0445,-0.77095 1.5437,-1.63564 1.4977,-2.59405 -0.1291,-2.68484 -1.1044,-3.98351 -2.926,-3.89602 -1.1515,0.0554 -1.6939,0.77806 -1.6271,2.16801 0.025,0.52679 0.1534,0.94079 0.3842,1.24202 0.2308,0.30133 0.3531,0.59609 0.367,0.88429 0.011,0.24 -0.2227,0.37151 -0.7026,0.39453 -1.2466,0.06 -2.588,-0.35587 -4.024,-1.24748 -1.7796,-1.0202 -2.7085,-2.34529 -2.7868,-3.9753 -0.06,-1.24655 0.4904,-2.30618 1.6511,-3.17887 1.0203,-0.77051 2.273,-1.19148 3.7581,-1.26292 3.2131,-0.15435 6.0176,0.94825 8.4137,3.30781 2.3961,2.35968 3.6747,5.21773 3.8361,8.57416 z"
         id="path6300" />
      <path
         d="m -1028.7207,461.45175 c 0.117,4.79742 -1.23,8.62315 -4.0411,11.47722 -1.4527,1.47581 -4.219,3.22398 -8.2989,5.24449 -3.2724,1.6638 -5.154,3.24605 -5.6449,4.74675 -0.6601,-1.47262 -2.7099,-2.81536 -6.1491,-4.02823 -4.1147,-1.38834 -6.9829,-2.85471 -8.6045,-4.39912 -2.9012,-2.7616 -4.4215,-6.99799 -4.5609,-12.70919 -0.1135,-4.65387 1.3084,-8.38545 4.2656,-11.19477 1.5008,-1.4286 4.4094,-3.22785 8.726,-5.39777 3.5113,-1.71795 5.5596,-3.3768 6.1448,-4.97654 0.5213,1.66799 2.3867,3.35151 5.5961,5.05056 4.0888,2.25205 6.7976,4.03442 8.1264,5.3471 2.8514,2.76284 4.3316,6.37601 4.4405,10.8395 z m -13.4604,0.25586 c -0.066,-2.68717 -0.5602,-5.24374 -1.4839,-7.66971 -1.0262,-2.66372 -2.1866,-3.97981 -3.4811,-3.94825 -1.3927,0.034 -2.5116,1.40569 -3.3569,4.11508 -0.8055,2.4198 -1.1749,4.99744 -1.1081,7.73293 0.069,2.83072 0.5401,5.41204 1.4131,7.74397 1.0259,2.71065 2.2586,4.04841 3.6981,4.01329 1.3927,-0.034 2.5111,-1.42909 3.3553,-4.18537 0.7114,-2.37058 1.0326,-4.97123 0.9635,-7.80194 z"
         id="path6298" />
      <path
         d="m -984.51629,475.55428 c 0.38454,0.1903 0.57753,0.45391 0.57898,0.79082 0.002,0.52734 -0.2847,0.76803 -0.86053,0.72209 -1.6808,-0.13657 -3.50481,-0.20076 -5.47204,-0.19258 -6.09666,0.0254 -10.10102,1.04984 -12.01292,3.07343 -0.143,0.14562 -0.2863,0.21872 -0.4298,0.21932 -0.4805,0.002 -0.7217,-0.23723 -0.7237,-0.7177 -8e-4,-0.19189 0.047,-0.33638 0.1432,-0.43346 1.1466,-1.15614 1.9094,-2.31069 2.2884,-3.46365 0.2847,-0.91378 0.4472,-2.35515 0.4874,-4.32408 -2.8209,2.93998 -4.7336,4.79658 -5.7381,5.56981 -2.9654,2.36343 -5.7444,3.55053 -8.3371,3.56132 -3.312,0.0138 -5.5024,-1.48885 -6.5711,-4.50787 -0.728,-2.10929 -1.1038,-5.99618 -1.1273,-11.66069 -0.022,-5.27923 -0.2532,-8.92576 -0.6937,-10.93959 -0.3914,-1.8221 -1.1152,-2.73096 -2.1713,-2.72659 -0.3838,0.002 -0.8496,0.54336 -1.3973,1.62521 -0.5478,1.0819 -1.2779,1.62474 -2.1905,1.62851 -1.3916,0.006 -2.0917,-1.02327 -2.1003,-3.08724 -0.01,-1.72847 0.5748,-3.21918 1.7458,-4.47214 1.1711,-1.2529 2.6443,-1.88305 4.4197,-1.89047 1.5366,-0.006 3.1214,0.13134 4.7544,0.41309 1.6331,0.28181 3.3373,0.41901 5.1126,0.4116 2.3525,-0.01 4.3666,-0.57038 6.0422,-1.68189 0.8149,-0.24359 1.2238,-0.005 1.2268,0.71561 0,0.28714 -0.1421,0.52724 -0.4298,0.7203 -0.5258,0.38748 -0.9994,1.85393 -1.421,4.39938 -0.4215,2.5455 -0.6263,5.25817 -0.6143,8.138 0.011,2.54443 0.3318,4.75136 0.9636,6.62081 0.6807,2.01282 1.5491,3.01703 2.6053,3.01262 1.4399,-0.006 2.7323,-0.8031 3.8771,-2.39139 0.9538,-1.34869 1.4284,-2.57528 1.4239,-3.67978 -0.039,-9.3119 -0.8975,-13.96437 -2.5762,-13.95742 -0.3369,10e-4 -0.6848,0.0992 -1.0436,0.29328 -0.3588,0.19415 -0.6107,0.29151 -0.7557,0.29209 -0.479,0.002 -0.7195,-0.23722 -0.7215,-0.71771 0,-0.28854 0.118,-0.5051 0.3576,-0.64969 2.5851,-1.49901 4.958,-2.25303 7.11862,-2.26205 1.00778,-0.004 2.20797,0.11097 3.60059,0.34538 1.39256,0.23448 2.54515,0.3498 3.45777,0.34597 2.20746,-0.009 4.00311,-0.95266 5.38696,-2.83053 0.14418,-0.19246 0.3364,-0.28921 0.57667,-0.29024 0.47896,-0.002 0.71946,0.23728 0.7215,0.7177 5.6e-4,0.14359 -0.0464,0.28734 -0.14103,0.43126 -2.72077,3.75552 -4.06027,10.64957 -4.0185,20.68217 0.0169,4.07957 0.46153,7.07774 1.33381,8.99453 0.6781,1.3888 1.78624,2.43962 3.32442,3.15246 z"
         id="path6296" />
      <path
         d="m -943.67008,457.40947 c 0.0223,1.68074 -0.84318,3.31145 -2.59636,4.89213 -1.75325,1.58071 -3.44567,2.35842 -5.07728,2.33312 -1.92021,-0.0297 -3.22983,-0.69829 -3.92887,-2.00568 -0.27965,-0.58007 -0.5485,-1.80826 -0.80654,-3.68457 -0.17035,-1.39439 -0.56599,-2.19236 -1.18694,-2.39392 -0.28707,-0.10112 -0.57486,-0.15392 -0.86337,-0.15841 -2.11061,-0.0327 -4.0914,2.33706 -5.94239,7.10924 -0.0759,8.01541 1.24418,12.69242 3.96012,14.03104 0.38074,0.19782 0.56852,0.46517 0.56332,0.80204 -0.008,0.52728 -0.29971,0.76229 -0.87455,0.70504 -6.13613,-0.62247 -9.32355,-0.93556 -9.56228,-0.93926 -3.8887,-0.0602 -7.07722,1.21033 -9.56557,3.81175 -0.14576,0.1413 -0.29041,0.21085 -0.43395,0.20863 -0.48041,-0.007 -0.71691,-0.25064 -0.70948,-0.72958 0.003,-0.19188 0.0528,-0.33541 0.14951,-0.4306 2.04881,-2.03247 3.38594,-4.65172 4.01137,-7.85775 0.31381,-1.62716 0.50419,-4.60113 0.57114,-8.92191 0.0833,-5.37531 -0.0748,-9.12198 -0.47412,-11.24001 -0.39938,-2.11799 -1.10291,-3.1848 -2.11059,-3.20044 -0.38521,-0.006 -0.8619,0.52653 -1.43007,1.59742 -0.56817,1.07094 -1.3085,1.59933 -2.22099,1.58517 -1.39143,-0.0215 -2.07116,-1.06417 -2.03919,-3.12791 0.0267,-1.72682 0.63786,-3.20508 1.83333,-4.43478 1.19545,-1.22964 2.68077,-1.83073 4.45596,-1.80326 1.53642,0.0238 3.18926,0.24136 4.9585,0.65258 1.76922,0.41128 3.54215,0.63066 5.31881,0.65816 2.35077,0.0365 4.37471,-0.4845 6.07181,-1.56287 0.8195,-0.22607 1.22443,-0.0271 1.21478,0.59677 -0.004,0.28711 -0.15247,0.57269 -0.44399,0.85675 -0.5853,0.61507 -1.05344,1.37548 -1.4044,2.28125 -0.64925,1.62201 -1.11777,3.96757 -1.40557,7.03669 4.81305,-6.93405 9.01893,-10.37321 12.61765,-10.31749 1.2962,0.0201 2.48869,0.51839 3.57749,1.49481 1.08873,0.97649 1.62418,2.04106 1.60636,3.19373 -0.0142,0.91105 -0.20026,2.09593 -0.55831,3.55464 -0.35813,1.45876 -0.54387,2.62021 -0.55722,3.48434 -0.0268,1.72833 0.43948,2.59991 1.39887,2.61476 0.86412,0.0134 1.49179,-0.21713 1.88301,-0.69162 z"
         id="path6294" />
      <path
         d="m -861.2241,463.64246 c -0.30927,5.70305 -2.24426,10.35707 -5.80495,13.96205 -3.81223,3.83194 -8.76218,5.58286 -14.84988,5.25279 -2.49246,-0.13515 -5.60058,-0.88056 -9.32436,-2.23626 -3.72384,-1.3557 -6.64034,-2.09073 -8.74953,-2.20509 -3.11556,-0.16892 -7.00903,1.15811 -11.68043,3.98112 -0.1485,0.0873 -0.29515,0.12702 -0.43995,0.11917 -0.52658,-0.0285 -0.7769,-0.28198 -0.75096,-0.76027 0.008,-0.14481 0.0873,-0.285 0.23845,-0.42057 4.73006,-3.012 7.47192,-11.46799 8.2256,-25.36799 0.68608,-12.65374 -0.60032,-19.06897 -3.85919,-19.24571 -1.05461,-0.0571 -1.62351,0.68145 -1.7067,2.21578 -0.11437,2.10924 -0.84219,3.12748 -2.18348,3.05472 -1.15114,-0.0624 -2.00968,-0.63778 -2.5756,-1.72621 -0.56593,-1.08835 -0.81249,-2.30392 -0.73968,-3.64671 0.1299,-2.39585 1.15252,-4.40703 3.06785,-6.03355 1.91532,-1.62642 4.1192,-2.37209 6.61165,-2.237 1.38954,0.0754 3.12985,0.55411 5.22092,1.43614 2.09103,0.88213 3.85547,1.36215 5.29332,1.44007 1.19792,0.065 2.70611,-0.0454 4.52457,-0.33121 1.8184,-0.28571 3.30245,-0.39742 4.45216,-0.33513 6.47093,0.35091 12.33758,3.86558 17.59997,10.54403 5.39264,6.92617 7.86937,14.43944 7.43022,22.53983 z m -13.92409,-1.18847 c 0.0987,-1.82104 -0.33581,-4.44044 -1.30351,-7.85822 -1.09996,1.67144 -2.82446,2.44346 -5.17351,2.31607 -0.86303,-0.0468 -1.75535,-0.43183 -2.67698,-1.15517 2.01891,-1.76533 3.11285,-4.20578 3.28181,-7.32134 0.12725,-2.3476 -0.56729,-4.39174 -2.08364,-6.13243 -1.51642,-1.74062 -3.48887,-2.82128 -5.91738,-3.242 -1.42145,4.92249 -2.27512,10.02022 -2.56099,15.2932 -0.2079,3.83375 -0.0749,7.58986 0.39905,11.26836 1.22384,-1.27886 2.8421,-1.86373 4.8548,-1.75462 2.0609,0.11176 3.59082,1.15633 4.58976,3.1337 -1.19421,-0.16156 -2.27812,0.0918 -3.25173,0.76 -0.97367,0.66825 -1.4917,1.57794 -1.55409,2.72907 -0.0676,1.24622 0.24417,2.36851 0.9353,3.36686 0.69107,0.99835 1.58806,1.52743 2.69096,1.58722 2.34906,0.12738 4.22205,-1.16471 5.61899,-3.87627 1.23135,-2.33763 1.9484,-5.37577 2.15116,-9.11443 z"
         id="path6292" />
      <path
         d="m -818.06385,484.8213 c 0.42672,0.0825 0.6222,0.33909 0.58644,0.76974 -0.0439,0.52699 -0.32653,0.74455 -0.84802,0.65268 -0.66608,-0.10388 -2.1702,-0.55415 -4.51235,-1.35081 -2.34223,-0.79666 -4.27899,-1.25864 -5.8103,-1.38596 -1.43502,-0.11931 -2.85475,0.0155 -4.2592,0.40435 -1.40451,0.38887 -2.35387,0.94787 -2.84809,1.67701 -0.16445,0.22739 -0.38972,0.32919 -0.67582,0.30541 -0.52701,-0.0438 -0.77067,-0.30441 -0.73095,-0.78176 0.008,-0.0964 0.0661,-0.21205 0.17437,-0.3471 0.5464,-0.7733 1.06408,-2.36773 1.55303,-4.78328 -5.62297,3.91427 -10.20445,5.72423 -13.74447,5.42991 -2.67875,-0.22272 -4.82646,-1.184 -6.44312,-2.88385 -1.61667,-1.69986 -2.33556,-3.62566 -2.15665,-5.77742 0.27842,-3.34879 2.14526,-6.10764 5.60053,-8.27658 1.37141,-0.84874 4.52239,-2.24848 9.45294,-4.19922 3.37975,-1.2609 5.12328,-2.5366 5.23059,-3.82709 0.0438,-0.52697 -0.24524,-0.81631 -0.86709,-0.86804 -0.57373,-0.0477 -1.79432,0.441 -3.66178,1.46605 -1.86749,1.02508 -3.56689,1.47395 -5.09822,1.34661 -3.72981,-0.31008 -5.43165,-2.42638 -5.10552,-6.34891 0.1988,-2.39113 1.38408,-4.48383 3.55584,-6.27811 2.17175,-1.79421 4.21452,-2.61177 6.12835,-2.45269 -1.36344,0.75245 -2.08071,1.84815 -2.15183,3.28712 -0.096,2.30419 0.81284,3.53583 2.72667,3.69492 0.52551,0.0437 2.15351,-0.56726 4.88399,-1.83296 2.73045,-1.26563 5.33943,-1.79506 7.82697,-1.58827 3.30059,0.27445 5.7726,2.11744 7.41603,5.52898 1.43574,3.00922 1.99057,6.47506 1.66448,10.39754 -0.11534,1.38683 -0.31052,2.86365 -0.58553,4.43047 -0.27509,1.56683 -0.45637,2.8765 -0.54384,3.92902 -0.25456,3.06122 0.11706,5.54831 1.11486,7.46129 0.70566,1.35953 1.41489,2.09318 2.12769,2.20095 z m -16.65361,-11.71653 0.5012,-6.02827 c -6.32189,3.0389 -9.55837,5.46707 -9.70946,7.28452 -0.10743,1.29194 0.65197,2.00551 2.27821,2.14071 1.76927,0.14711 4.07928,-0.98521 6.93005,-3.39696 z"
         id="path6290" />
      <path
         d="m -768.51341,440.79779 c -1.49452,0.41403 -2.96208,2.11095 -4.40267,5.09077 -2.12836,4.40123 -3.66451,10.87146 -4.60847,19.41072 -0.94951,8.58881 -1.1346,14.62921 -0.55527,18.12122 0.41507,2.36413 1.39143,4.01731 2.92909,4.95954 0.36033,0.2329 0.52201,0.51679 0.48504,0.85167 -0.058,0.52414 -0.3704,0.73057 -0.93725,0.61927 -3.87538,-0.76591 -5.765,-1.14355 -5.66887,-1.13292 -5.15273,-0.56962 -9.00867,0.23545 -11.56784,2.4152 -0.1601,0.12821 -0.31148,0.18442 -0.45415,0.16866 -0.47612,-0.0526 -0.68778,-0.31774 -0.63496,-0.79529 0.0211,-0.19074 0.0842,-0.32892 0.18952,-0.41455 1.11773,-0.93902 1.95679,-2.84985 2.51718,-5.73249 -5.12872,3.58611 -9.79258,5.14707 -13.99159,4.68288 -3.29197,-0.36392 -5.78373,-1.84713 -7.4753,-4.44963 -1.57013,-2.39454 -2.17589,-5.21376 -1.81728,-8.45768 0.6224,-5.63024 2.81132,-10.5796 6.56675,-14.8481 3.92996,-4.54096 8.20921,-6.55562 12.83777,-6.04397 2.86242,0.31646 4.98049,1.034 6.3542,2.15262 0.47703,-8.68814 -0.3342,-13.14827 -2.43369,-13.3804 -0.38149,-0.0421 -0.90598,0.44297 -1.57348,1.4553 -0.66755,1.01241 -1.45412,1.46854 -2.35971,1.36839 -1.38466,-0.15303 -1.96358,-1.25529 -1.73677,-3.3068 0.18974,-1.71655 1.0797,-3.21131 2.66989,-4.48428 1.59015,-1.27288 3.29157,-1.80914 5.10429,-1.6088 1.52583,0.16872 3.22619,0.62197 5.10108,1.35974 1.87483,0.73786 3.69458,1.20431 5.45926,1.39934 2.33825,0.25854 5.51593,-0.0902 9.53303,-1.04627 0.78397,-0.10634 1.13381,0.22193 1.04952,0.98481 -0.0371,0.33492 -0.23018,0.55527 -0.57932,0.66105 z m -21.86992,35.97472 c 0.32607,-4.69621 0.67638,-8.73834 1.05095,-12.12641 l 0.16611,-1.50256 c -0.5464,-0.73684 -1.32044,-1.16064 -2.32212,-1.2714 -2.14759,-0.23738 -4.29138,0.91429 -6.43139,3.455 -2.14004,2.54076 -3.37093,5.26637 -3.69266,8.17685 -0.18447,1.66856 0.11085,3.14992 0.88595,4.44408 0.8541,1.44587 2.09213,2.25845 3.71411,2.43775 2.0034,0.22148 4.21308,-0.98296 6.62905,-3.61331 z"
         id="path6288" />
      <path
         d="m -725.77016,446.89137 c -1.50668,0.36732 -3.02634,2.01775 -4.55896,4.9513 -2.2643,4.33286 -4.00106,10.75215 -5.2103,19.2579 -1.21633,8.55509 -1.58931,14.58681 -1.11894,18.09516 0.3413,2.3759 1.26574,4.05866 2.77333,5.04829 0.35291,0.244 0.50568,0.53278 0.4583,0.86635 -0.0743,0.52209 -0.39296,0.71869 -0.95606,0.5898 -3.84967,-0.88613 -5.72663,-1.32239 -5.63088,-1.30878 -5.1325,-0.7297 -9.01163,-0.045 -11.6374,2.05404 -0.16401,0.12316 -0.31707,0.17464 -0.45917,0.15444 -0.47426,-0.0674 -0.67756,-0.33899 -0.60991,-0.81467 0.027,-0.18999 0.0944,-0.32614 0.20233,-0.40845 1.14642,-0.90378 2.04454,-2.78757 2.69436,-5.65138 -5.23783,3.42477 -9.94801,4.83983 -14.13055,4.2452 -3.27904,-0.46619 -5.72344,-2.02623 -7.3332,-4.68011 -1.49485,-2.44224 -2.01258,-5.27895 -1.5532,-8.51014 0.79732,-5.60814 3.1392,-10.48698 7.02564,-14.63655 4.06938,-4.41646 8.40926,-6.29697 13.01965,-5.64153 2.85119,0.40539 4.9459,1.1885 6.28413,2.34933 0.74718,-8.66909 0.0751,-13.15231 -2.0161,-13.44967 -0.38,-0.054 -0.91934,0.41457 -1.61802,1.40564 -0.69873,0.99114 -1.49911,1.42257 -2.40115,1.29429 -1.37922,-0.19605 -1.92356,-1.3158 -1.63302,-3.35925 0.24307,-1.70981 1.17912,-3.17615 2.80816,-4.39902 1.62898,-1.22277 3.34627,-1.70583 5.15187,-1.44918 1.51985,0.21613 3.20528,0.72208 5.0563,1.51784 1.85096,0.79585 3.65531,1.3187 5.41307,1.56855 2.32907,0.33118 5.51606,0.0815 9.56097,-0.74909 0.7869,-0.0819 1.12635,0.2571 1.01836,1.01699 -0.0475,0.3336 -0.24734,0.54784 -0.59961,0.6427 z m -22.97886,35.2767 c 0.47205,-4.68378 0.94799,-8.71306 1.42781,-12.08783 l 0.21279,-1.49667 c -0.5232,-0.75348 -1.28368,-1.20116 -2.28143,-1.34304 -2.13916,-0.3041 -4.31775,0.78029 -6.53579,3.25318 -2.21808,2.47293 -3.53319,5.15892 -3.94534,8.05797 -0.23631,1.66201 0.0128,3.15184 0.74722,4.4695 0.80869,1.47175 2.02084,2.32247 3.63645,2.55216 1.99553,0.28371 4.24163,-0.85138 6.73829,-3.40527 z"
         id="path6286" />
      <path
         d="m -690.62046,467.49555 c -0.66533,1.53871 -1.96474,4.3047 -3.89821,8.29797 -0.96117,1.82803 -2.32841,6.94762 -4.10171,15.35878 -1.77338,8.41118 -3.54188,14.40911 -5.30551,17.99382 -2.86086,5.63239 -6.53564,8.04688 -11.02434,7.24349 -1.65391,-0.29605 -3.52898,-1.39953 -5.62522,-3.31045 -2.09627,-1.91096 -3.78245,-2.98064 -5.05855,-3.20903 -0.94447,-0.16906 -1.77192,0.0973 -2.48234,0.79902 -0.71044,0.70171 -1.15869,1.57239 -1.34477,2.61204 -0.3128,1.7476 0.0647,3.18051 1.13241,4.29874 -2.53845,-0.25942 -4.5161,-1.54012 -5.93298,-3.8421 -1.41687,-2.30202 -1.88852,-4.77599 -1.41493,-7.42191 0.35513,-1.98411 1.39204,-3.55375 3.11073,-4.70895 1.7187,-1.15521 3.57009,-1.55524 5.55419,-1.20011 1.51258,0.27072 3.25656,1.28973 5.23196,3.05702 1.97538,1.76727 3.71936,2.78628 5.23196,3.05702 2.26669,0.4057 4.15688,-3.6199 5.67058,-12.0768 -2.75936,1.79782 -4.77758,2.99689 -6.05467,3.59719 -2.92964,1.37745 -5.5516,1.85907 -7.86589,1.44484 -2.50463,-0.44829 -4.44372,-1.80729 -5.81727,-4.07698 -1.37355,-2.26969 -1.82779,-4.70371 -1.36272,-7.30207 0.32983,-1.84278 1.30916,-4.04477 2.93799,-6.60597 1.62882,-2.56118 2.59537,-4.69179 2.89966,-6.39184 0.33834,-1.89035 0.0346,-2.92018 -0.91133,-3.08951 -1.22853,-0.21987 -1.95274,0.28445 -2.17262,1.51295 -0.22841,1.27613 -0.10927,2.24836 0.35743,2.91671 -1.37954,-0.19928 -2.49284,-0.9964 -3.33991,-2.39136 -0.84707,-1.39492 -1.13963,-2.82417 -0.87767,-4.28775 0.41448,-2.31571 1.56312,-4.17079 3.44593,-5.56526 1.88279,-1.3944 3.93447,-1.89289 6.15505,-1.49548 0.89831,0.16082 1.84601,0.794 2.84311,1.89953 0.99706,1.1056 1.92025,1.73438 2.76956,1.88637 0.61425,0.10997 1.3738,-0.0472 2.27866,-0.47164 1.31507,3.55244 1.73583,6.65161 1.26226,9.29753 -0.34663,1.93653 -1.28449,4.31632 -2.81359,7.1394 -1.52914,2.8231 -2.36971,4.65929 -2.52171,5.50858 -0.12699,0.70944 0.0485,1.36288 0.52638,1.96032 0.47788,0.59746 1.09534,0.96393 1.85237,1.09942 2.03166,0.36365 4.69654,-1.45108 7.99465,-5.44419 0.78662,-4.39499 1.177,-7.6652 1.17114,-9.81066 -0.039,-3.32398 -0.93232,-5.14238 -2.67991,-5.45521 -0.42539,-0.0761 -0.87963,-0.0596 -1.3627,0.0496 -0.48313,0.10925 -0.77154,0.15547 -0.86524,0.13867 -0.47297,-0.0846 -0.66287,-0.38722 -0.56968,-0.90778 0.0506,-0.2826 0.20687,-0.47412 0.46892,-0.57457 3.19519,-1.23168 5.80864,-1.66571 7.84034,-1.30209 0.89685,0.16055 1.88044,0.38534 2.95079,0.67435 1.07027,0.28907 2.07766,0.51812 3.02216,0.68714 3.82684,0.68498 6.27844,-0.0712 7.35481,-2.26848 0.15423,-0.31314 0.42025,-0.43592 0.79808,-0.36833 0.66036,0.11824 0.84114,0.46756 0.54235,1.04799 z"
         id="path6284" />
      <path
         d="m -651.78251,471.67215 c -0.82047,3.60361 -2.96889,6.33923 -6.44527,8.20686 -0.33475,0.1702 -3.4435,1.28401 -9.32626,3.34143 -3.3179,1.16462 -5.20592,2.75316 -5.66406,4.76561 -0.0745,0.32709 0.0541,0.62678 0.38572,0.89907 0.33159,0.27232 0.66702,0.4223 1.00628,0.44994 1.07237,0.0474 2.30615,-0.50854 3.70133,-1.66772 -0.002,0.44283 -0.0558,0.89847 -0.16247,1.36694 -0.56486,2.48096 -2.04224,4.48298 -4.43213,6.00607 -2.38995,1.5231 -4.80182,2.00759 -7.23561,1.45349 -1.73111,-0.39411 -3.12825,-1.22899 -4.1914,-2.50465 -1.06319,-1.27564 -1.54897,-2.76462 -1.45736,-4.46694 0.0442,-0.62991 0.13564,-1.24909 0.27417,-1.85756 0.86301,-3.79067 3.92493,-6.85991 9.18578,-9.2077 6.4028,-2.82389 10.02516,-6.08478 10.86707,-9.78267 0.13849,-0.60842 0.004,-1.20514 -0.40482,-1.79017 -0.40844,-0.58495 -0.91687,-0.94671 -1.52529,-1.08527 -1.40404,-0.31961 -2.84694,0.28709 -4.32869,1.82009 -2.61085,2.6056 -4.06004,3.99883 -4.34759,4.17971 -1.99599,1.41601 -4.32799,1.82029 -6.99603,1.21283 -2.33956,-0.53261 -3.94414,-1.80908 -4.81373,-3.82941 -0.67376,-1.58057 -0.79748,-3.30711 -0.37117,-5.17965 0.49003,-2.1524 2.22602,-4.58755 5.20796,-7.30547 2.98191,-2.71783 4.52394,-4.40992 4.62608,-5.07629 0.0592,-0.47773 0.34659,-0.65793 0.86222,-0.54059 0.4199,0.0956 0.58726,0.33056 0.50208,0.70472 -0.1766,0.99345 -0.75329,2.06815 -1.73006,3.2241 -0.97681,1.15605 -1.53983,2.06184 -1.68907,2.71739 -0.0745,0.32712 0.006,0.83748 0.24184,1.53109 0.29807,0.85513 0.70421,1.3412 1.21841,1.45822 0.98265,0.22377 2.46267,-0.005 4.44007,-0.68602 3.0046,-1.08865 4.92373,-1.7349 5.75738,-1.93877 2.49186,-0.56539 4.86116,-0.59235 7.1079,-0.0809 3.55642,0.80973 6.24944,2.49362 8.07907,5.05168 1.82954,2.55815 2.38209,5.42832 1.65765,8.61053 z m -24.03903,33.58911 c -0.0169,0.2921 -0.23191,0.58795 -0.64487,0.88754 -0.41302,0.29958 -0.79759,0.5816 -1.15374,0.84605 -2.18475,1.81619 -3.72202,2.62299 -4.61183,2.42041 -0.4685,-0.10666 -1.25859,-0.85292 -2.37027,-2.23876 -1.21982,-1.5577 -1.85855,-2.85991 -1.91619,-3.90663 -0.0275,-0.74389 0.60315,-1.62153 1.89181,-2.63292 1.28863,-1.01139 2.5476,-1.62353 3.77692,-1.83642 1.02214,-0.1609 1.67772,-0.0116 1.96676,0.44777 0.58842,0.87311 1.17166,1.76908 1.74971,2.68789 0.86846,1.37856 1.30569,2.48691 1.3117,3.32507 z"
         id="path6282" />
    </g>
  </g>
</svg>
